<svg xmlns="http://www.w3.org/2000/svg" version="1.0" width="398.000000pt" height="349.000000pt" viewBox="0 0 398.000000 349.000000" preserveAspectRatio="xMidYMid meet">

<g transform="translate(0.000000,349.000000) scale(0.100000,-0.100000)" stroke="none">
<path d="M123 3379 c-22 -14 -36 -33 -43 -59 -7 -26 -9 -459 -8 -1302 l3 -1265 27 -35 c19 -25 40 -39 72 -47 32 -8 288 -11 866 -11 l822 0 -48 -52 c-102 -114 -98 -155 25 -280 78 -80 90 -88 124 -88 50 0 82 18 142 79 27 28 56 51 63 51 8 0 41 -12 73 -26 l59 -27 1 -81 c0 -105 14 -143 64 -178 37 -25 48 -27 133 -28 100 0 129 9 172 55 23 24 25 36 28 130 l4 103 61 26 c34 14 68 26 76 26 8 0 45 -29 82 -65 58 -56 72 -65 104 -65 53 0 84 20 159 104 100 112 102 160 9 257 l-56 59 274 0 c301 0 319 3 363 63 21 28 21 32 24 1300 2 940 -1 1279 -9 1300 -6 15 -25 39 -41 52 l-30 25 -1781 0 -1782 0 -32 -21z m3570 -72 c16 -11 17 -34 15 -232 l-3 -220 -1770 0 -1770 0 -3 219 c-2 153 1 223 9 232 16 20 3496 21 3522 1z m27 -1509 c0 -621 -4 -986 -10 -1009 -9 -34 -14 -37 -56 -43 -70 -9 -494 -7 -494 3 0 4 5 22 11 40 13 36 22 39 132 43 72 3 79 6 110 36 32 32 32 33 35 144 6 193 -19 228 -163 228 -44 0 -85 4 -91 8 -12 7 -64 127 -64 147 0 6 22 33 50 60 115 113 109 176 -31 312 -97 93 -140 93 -233 -4 -33 -34 -67 -63 -74 -63 -7 0 -42 13 -77 29 l-65 30 0 86 c0 159 -29 185 -204 185 -112 0 -117 -1 -146 -27 -37 -33 -49 -79 -50 -178 l0 -71 -62 -27 c-35 -15 -67 -27 -72 -27 -5 0 -40 29 -77 65 -62 60 -71 65 -111 65 -54 0 -82 -18 -163 -108 -97 -108 -97 -151 1 -253 30 -32 54 -66 54 -77 0 -21 -37 -119 -53 -140 -6 -8 -39 -12 -99 -12 -88 0 -91 -1 -123 -33 -28 -28 -34 -42 -40 -101 -14 -129 8 -230 58 -258 12 -7 62 -15 112 -18 l90 -5 16 -35 c16 -34 16 -35 -4 -43 -11 -4 -383 -6 -827 -5 -666 3 -810 5 -823 17 -16 12 -17 95 -17 1012 l0 999 1780 0 1780 0 0 -972z m-1112 140 c8 -8 12 -49 12 -117 0 -59 4 -112 8 -118 9 -15 200 -103 222 -103 9 0 49 34 90 75 41 41 81 75 89 75 23 0 151 -131 151 -155 0 -11 -32 -54 -70 -97 -39 -42 -70 -84 -70 -94 0 -25 80 -228 94 -236 6 -4 56 -8 111 -8 65 0 105 -4 113 -12 14 -14 16 -196 2 -218 -7 -11 -37 -16 -122 -20 l-112 -5 -27 -70 c-15 -38 -36 -94 -48 -123 l-21 -53 75 -80 c43 -46 75 -89 75 -100 0 -25 -126 -159 -149 -159 -9 0 -48 34 -87 75 -42 45 -79 75 -91 75 -21 0 -199 -74 -220 -92 -9 -7 -13 -45 -13 -124 0 -135 1 -134 -117 -134 -115 0 -117 2 -123 145 l-5 116 -104 44 c-57 25 -111 45 -120 45 -9 0 -50 -34 -91 -75 -41 -41 -82 -75 -91 -75 -20 0 -149 134 -149 155 0 8 34 52 75 97 41 46 75 87 75 93 0 13 -81 217 -93 233 -6 8 -42 12 -111 12 -55 0 -107 4 -115 9 -10 7 -13 36 -13 116 0 80 3 109 13 116 8 5 60 9 115 9 69 0 105 4 112 13 12 15 92 219 92 236 0 6 -31 45 -70 86 -45 48 -70 82 -70 97 0 28 114 158 139 158 9 0 50 -34 91 -76 62 -62 79 -74 100 -71 31 6 191 76 207 91 8 7 14 52 16 125 3 83 7 115 18 122 22 13 193 11 207 -3z"/>
<path d="M2611 3143 c-11 -10 -24 -32 -27 -50 -5 -26 -1 -37 19 -57 33 -33 71 -33 102 -1 39 38 32 86 -16 110 -37 19 -52 19 -78 -2z"/>
<path d="M2973 3134 c-58 -58 15 -153 87 -114 50 27 49 100 0 125 -40 21 -57 19 -87 -11z"/>
<path d="M3366 3139 c-52 -41 -19 -129 50 -129 62 0 88 90 38 129 -15 12 -34 21 -44 21 -10 0 -29 -9 -44 -21z"/>
<path d="M1042 2263 c-277 -493 -295 -534 -247 -541 17 -2 45 41 167 260 183 328 185 332 168 353 -23 28 -38 16 -88 -72z"/>
<path d="M512 2193 c-67 -81 -122 -155 -122 -163 0 -9 52 -79 116 -156 83 -100 121 -139 137 -139 12 0 23 7 25 15 1 8 -45 73 -104 143 -84 102 -105 133 -100 150 4 12 51 76 107 141 55 66 98 127 97 135 -8 40 -39 14 -156 -126z"/>
<path d="M1247 2333 c-16 -15 -2 -38 98 -160 58 -70 105 -135 105 -143 0 -8 -48 -71 -106 -139 -102 -119 -121 -157 -87 -168 13 -5 263 291 263 312 0 17 -240 305 -255 305 -6 0 -15 -3 -18 -7z"/>
<path d="M2420 1333 c-85 -30 -134 -74 -181 -163 -33 -63 -34 -192 -1 -265 48 -105 134 -166 247 -173 62 -4 80 -1 127 20 68 31 117 80 152 149 22 44 26 66 26 133 0 92 -19 143 -75 212 -52 63 -122 94 -209 93 -39 0 -78 -3 -86 -6z m175 -72 c108 -50 165 -178 131 -296 -20 -67 -58 -112 -127 -149 -45 -25 -59 -28 -110 -23 -127 11 -217 110 -219 238 0 96 57 195 134 230 53 24 139 24 191 0z"/>
</g>
</svg>