<svg version="1.0" xmlns="http://www.w3.org/2000/svg"
 width="546.000000pt" height="511.000000pt" viewBox="0 0 546.000000 511.000000"
 preserveAspectRatio="xMidYMid meet">
<g transform="translate(0.000000,511.000000) scale(0.100000,-0.100000)"
 stroke="none">
<path d="M1040 4770 l-40 -40 0 -1400 0 -1400 40 -40 40 -40 1720 0 1719 0 41
38 40 39 0 1401 0 1402 -40 40 -40 40 -1720 0 -1720 0 -40 -40z m3468 -52 c8
-8 12 -67 12 -200 l0 -188 -1720 0 -1720 0 0 188 c0 133 4 192 12 200 17 17
3399 17 3416 0z m-2548 -1628 l0 -1160 -428 0 c-320 0 -431 3 -440 12 -9 9
-12 280 -12 1160 l0 1148 440 0 440 0 0 -1160z m2560 12 c0 -880 -3 -1151 -12
-1160 -9 -9 -298 -12 -1240 -12 l-1228 0 0 1160 0 1160 1240 0 1240 0 0 -1148z"/>
<path d="M3600 4612 c-34 -33 -40 -45 -40 -80 0 -36 6 -48 40 -82 34 -34 46
-40 82 -40 35 0 47 6 80 40 31 33 38 48 38 80 0 33 -7 47 -40 80 -33 33 -47
40 -80 40 -32 0 -47 -7 -80 -38z"/>
<path d="M3920 4610 c-33 -33 -40 -47 -40 -80 0 -33 7 -47 40 -80 33 -33 47
-40 80 -40 33 0 47 7 80 40 33 33 40 47 40 80 0 33 -7 47 -40 80 -33 33 -47
40 -80 40 -33 0 -47 -7 -80 -40z"/>
<path d="M4240 4610 c-34 -34 -40 -46 -40 -82 0 -35 6 -47 40 -80 33 -31 48
-38 80 -38 33 0 47 7 80 40 33 33 40 47 40 80 0 32 -7 47 -38 80 -33 34 -45
40 -80 40 -36 0 -48 -6 -82 -40z"/>
<path d="M1200 4530 l0 -40 640 0 640 0 0 40 0 40 -640 0 -640 0 0 -40z"/>
<path d="M1200 3970 l0 -40 320 0 320 0 0 40 0 40 -320 0 -320 0 0 -40z"/>
<path d="M1200 3650 l0 -40 320 0 320 0 0 40 0 40 -320 0 -320 0 0 -40z"/>
<path d="M1200 3330 l0 -40 320 0 320 0 0 40 0 40 -320 0 -320 0 0 -40z"/>
<path d="M1200 3010 l0 -40 320 0 320 0 0 40 0 40 -320 0 -320 0 0 -40z"/>
<path d="M1200 2690 l0 -40 320 0 320 0 0 40 0 40 -320 0 -320 0 0 -40z"/>
<path d="M1200 2370 l0 -40 320 0 320 0 0 40 0 40 -320 0 -320 0 0 -40z"/>
<path d="M2360 3970 l0 -40 140 0 140 0 0 40 0 40 -140 0 -140 0 0 -40z"/>
<path d="M2800 3970 l0 -40 160 0 160 0 0 40 0 40 -160 0 -160 0 0 -40z"/>
<path d="M3280 3970 l0 -40 160 0 160 0 0 40 0 40 -160 0 -160 0 0 -40z"/>
<path d="M3760 3970 l0 -40 220 0 220 0 0 40 0 40 -220 0 -220 0 0 -40z"/>
<path d="M2319 3731 l-39 -39 0 -282 0 -282 39 -39 39 -39 921 0 921 0 40 40
40 40 0 280 0 280 -40 40 -40 40 -921 0 -921 0 -39 -39z m1869 -53 c17 -17 17
-519 0 -536 -17 -17 -1799 -17 -1816 0 -17 17 -17 519 0 536 17 17 1799 17
1816 0z"/>
<path d="M2360 2850 l0 -40 220 0 220 0 0 40 0 40 -220 0 -220 0 0 -40z"/>
<path d="M2960 2850 l0 -40 320 0 320 0 0 40 0 40 -320 0 -320 0 0 -40z"/>
<path d="M3760 2850 l0 -40 220 0 220 0 0 40 0 40 -220 0 -220 0 0 -40z"/>
<path d="M2360 2610 l0 -40 220 0 220 0 0 40 0 40 -220 0 -220 0 0 -40z"/>
<path d="M2960 2610 l0 -40 320 0 320 0 0 40 0 40 -320 0 -320 0 0 -40z"/>
<path d="M3760 2610 l0 -40 220 0 220 0 0 40 0 40 -220 0 -220 0 0 -40z"/>
<path d="M2360 2370 l0 -40 220 0 220 0 0 40 0 40 -220 0 -220 0 0 -40z"/>
<path d="M2960 2370 l0 -40 320 0 320 0 0 40 0 40 -320 0 -320 0 0 -40z"/>
<path d="M3760 2370 l0 -40 220 0 220 0 0 40 0 40 -220 0 -220 0 0 -40z"/>
<path d="M636 4150 c-54 -27 -71 -45 -95 -96 -21 -44 -21 -50 -21 -1443 0
-1500 -2 -1427 49 -1492 11 -15 41 -36 66 -48 l45 -21 2120 0 2120 0 45 21
c25 12 55 33 66 48 51 65 49 -8 49 1492 l0 1399 -21 45 c-41 86 -101 115 -240
115 l-99 0 0 -40 0 -40 90 0 c101 0 136 -12 169 -59 l21 -29 0 -1396 0 -1396
-40 -40 -40 -40 -2120 0 -2120 0 -40 40 -40 40 0 1400 0 1400 40 40 40 40 100
0 100 0 0 40 0 40 -102 0 c-82 -1 -111 -5 -142 -20z"/>
<path d="M720 3970 l-40 -40 0 -1160 0 -1160 40 -40 40 -40 2040 0 2039 0 41
38 40 39 0 1161 0 1161 -38 41 c-37 38 -42 40 -100 40 l-62 0 0 -40 0 -40 48
0 c26 0 53 -5 60 -12 17 -17 17 -2279 0 -2296 -17 -17 -4039 -17 -4056 0 -17
17 -17 2279 0 2296 7 7 34 12 60 12 l48 0 0 40 0 40 -60 0 c-57 0 -62 -2 -100
-40z"/>
<path d="M4080 1410 c-33 -33 -40 -47 -40 -80 0 -33 7 -47 40 -80 33 -33 47
-40 80 -40 33 0 47 7 80 40 33 33 40 47 40 80 0 33 -7 47 -40 80 -33 33 -47
40 -80 40 -33 0 -47 -7 -80 -40z"/>
<path d="M4400 1410 c-34 -34 -40 -46 -40 -82 0 -35 6 -47 40 -80 l41 -38 201
0 200 0 39 39 c33 32 39 45 39 80 0 35 -6 47 -40 81 l-40 40 -200 0 -200 0
-40 -40z m434 -62 c8 -13 8 -23 0 -35 -10 -16 -32 -18 -189 -21 -182 -3 -205
2 -205 37 0 38 18 42 204 39 158 -3 180 -5 190 -20z"/>
<path d="M2331 908 c-4 -13 -13 -63 -20 -113 -7 -49 -16 -101 -20 -115 l-8
-25 -169 -5 c-93 -3 -178 -9 -189 -14 -86 -38 -125 -108 -125 -226 l0 -80 40
-40 40 -40 920 0 920 0 40 40 c40 40 40 40 40 119 0 118 -33 181 -115 220 -40
19 -63 21 -204 21 -88 0 -162 4 -165 8 -4 7 -46 246 -46 265 0 5 -17 7 -37 5
l-38 -3 3 -45 c1 -25 7 -65 12 -90 5 -25 11 -65 12 -90 l3 -45 -419 -3 c-231
-1 -423 1 -428 6 -4 4 1 63 13 130 11 68 17 127 14 132 -3 6 -20 10 -36 10
-22 0 -32 -6 -38 -22z m1349 -378 c39 -39 40 -42 40 -108 0 -40 -5 -73 -12
-80 -17 -17 -1799 -17 -1816 0 -17 17 -15 123 3 157 8 16 27 38 42 50 28 20
34 20 866 21 l837 0 40 -40z"/>
</g>
</svg>
