<svg version="1.0" xmlns="http://www.w3.org/2000/svg"
 width="546.000000pt" height="511.000000pt" viewBox="0 0 546.000000 511.000000"
 preserveAspectRatio="xMidYMid meet">
<g transform="translate(0.000000,511.000000) scale(0.100000,-0.100000)"
 stroke="none">
<path d="M4060 5250 c-8 -5 -26 -10 -39 -10 -14 0 -41 -5 -60 -11 -192 -62
-325 -142 -450 -274 -82 -86 -119 -139 -170 -242 -82 -164 -105 -265 -104
-453 0 -117 4 -162 22 -233 l23 -89 -24 -25 c-12 -15 -168 -173 -345 -352
l-322 -326 -396 395 c-217 217 -395 399 -395 404 0 4 12 22 26 39 45 54 29 86
-181 377 -42 58 -88 124 -102 146 -26 41 -68 72 -238 177 -156 97 -210 130
-240 147 -16 10 -90 54 -164 99 -189 115 -167 120 -374 -87 -183 -183 -189
-193 -148 -264 23 -41 159 -263 231 -378 29 -47 76 -122 104 -167 88 -142 110
-166 210 -238 54 -38 121 -87 149 -108 137 -100 231 -157 258 -157 17 0 42 12
63 31 l35 30 395 -395 c218 -218 396 -399 396 -404 0 -4 -157 -164 -349 -356
l-350 -350 -38 12 c-102 29 -144 35 -271 35 -109 0 -156 -5 -227 -23 -239 -60
-452 -199 -596 -390 -50 -67 -117 -194 -139 -265 -7 -22 -16 -50 -21 -63 -5
-13 -9 -36 -9 -52 0 -16 -5 -32 -10 -35 -13 -8 -13 -302 0 -310 6 -3 10 -19
10 -35 0 -39 44 -90 78 -90 21 0 79 53 287 258 143 143 274 269 292 280 34 24
75 27 150 13 26 -6 80 -15 118 -21 228 -37 252 -54 280 -199 7 -36 18 -100 25
-141 6 -41 16 -95 21 -119 16 -73 -6 -103 -291 -393 -223 -226 -259 -267 -259
-293 0 -74 48 -90 264 -90 173 0 201 4 330 47 261 88 491 310 599 578 64 157
86 397 50 555 -8 39 -17 88 -20 110 l-5 40 344 343 c189 188 347 342 350 342
13 0 247 -240 247 -252 0 -8 -43 -56 -96 -108 -109 -108 -129 -141 -109 -180
8 -14 350 -361 762 -772 839 -837 796 -800 937 -800 129 -1 140 7 435 302 153
154 263 273 275 296 10 22 22 47 27 56 12 23 12 133 0 156 -5 9 -15 33 -22 52
-9 25 -222 245 -768 794 -416 417 -769 764 -786 771 -41 18 -52 11 -172 -108
-87 -86 -105 -99 -122 -91 -11 5 -72 60 -135 123 -92 90 -113 117 -106 130 5
9 159 166 343 349 219 218 341 332 354 332 11 0 58 -9 103 -21 97 -24 317 -28
404 -8 320 75 574 273 703 549 51 108 50 107 74 195 18 66 23 108 23 235 1
146 -1 158 -24 205 -26 52 -58 76 -90 68 -10 -3 -133 -121 -274 -263 -232
-235 -261 -260 -313 -280 l-58 -22 -170 33 c-93 18 -185 39 -202 46 -52 21
-79 91 -103 258 -6 44 -16 99 -21 122 -13 61 -11 100 7 136 9 18 135 152 280
298 280 282 286 290 246 339 -11 14 -37 27 -68 33 -69 14 -335 20 -354 7z
m180 -158 c0 -4 -77 -84 -171 -177 -173 -172 -249 -261 -275 -323 -16 -39 -19
-124 -5 -168 5 -16 14 -60 21 -99 23 -141 54 -253 86 -316 16 -31 67 -77 103
-91 44 -18 160 -43 306 -68 39 -7 91 -16 116 -21 61 -11 136 9 208 57 31 20
135 117 231 216 96 98 181 178 188 178 16 0 15 -35 -3 -135 -20 -116 -28 -142
-68 -228 -50 -107 -104 -182 -181 -254 -98 -92 -183 -147 -291 -186 -104 -38
-132 -42 -280 -41 -140 1 -156 3 -240 32 -334 114 -545 358 -596 690 -21 139
7 295 84 462 43 91 80 144 161 229 124 128 243 193 441 240 49 11 165 14 165
3z m-3438 -203 c29 -17 64 -39 78 -49 14 -10 41 -27 60 -38 41 -23 130 -78
255 -156 50 -31 111 -69 136 -83 31 -19 61 -50 97 -102 94 -137 157 -226 185
-262 34 -46 34 -63 -3 -106 -16 -18 -30 -45 -30 -58 0 -20 189 -213 870 -895
479 -478 870 -873 870 -877 0 -10 -122 -133 -132 -133 -10 0 -232 223 -840
840 -795 809 -880 890 -938 890 -14 0 -38 -13 -56 -31 l-32 -31 -84 57 c-46
32 -130 91 -188 131 -111 76 -134 98 -167 154 -11 19 -44 73 -73 120 -29 47
-65 105 -80 130 -15 25 -51 83 -80 130 -90 145 -110 180 -110 196 0 18 179
204 196 204 7 0 37 -14 66 -31z m2614 -1186 c98 -131 213 -240 290 -275 13 -6
24 -16 24 -22 0 -6 -146 -157 -325 -336 l-325 -325 -192 193 -193 192 325 325
c179 179 328 325 331 325 4 0 33 -35 65 -77z m-891 -1133 l190 -190 -325 -325
c-179 -179 -329 -325 -335 -325 -5 1 -26 26 -45 57 -48 76 -155 189 -230 243
-34 25 -72 53 -84 62 -21 17 -17 21 304 342 179 180 327 326 330 326 3 0 91
-86 195 -190z m1917 -877 c506 -507 709 -717 715 -738 14 -56 7 -122 -18 -157
-30 -42 -434 -446 -476 -476 -24 -17 -45 -22 -94 -22 l-63 0 -726 725 -725
725 325 325 c179 179 332 325 340 325 8 0 333 -318 722 -707z m-3189 377 c231
-33 396 -117 548 -276 109 -115 167 -223 209 -389 12 -49 13 -281 1 -321 -5
-16 -14 -49 -22 -74 -63 -220 -243 -429 -461 -534 -71 -34 -101 -43 -203 -61
-91 -17 -141 -19 -149 -7 -3 5 80 94 183 198 103 104 204 214 223 244 44 68
58 132 47 202 -21 125 -52 285 -68 348 -38 152 -103 190 -426 251 -27 5 -73
15 -101 21 -70 15 -150 6 -205 -21 -31 -15 -116 -93 -250 -227 -112 -112 -207
-204 -211 -204 -13 0 -8 131 6 190 43 174 113 306 219 412 139 138 277 212
457 243 98 16 117 17 203 5z"/>
<path d="M3887 2030 c-19 -15 -27 -31 -27 -53 0 -29 45 -78 453 -485 414 -414
455 -452 485 -452 41 0 62 19 69 66 l6 36 -449 449 c-483 482 -482 482 -537
439z"/>
<path d="M3657 1802 c-10 -10 -17 -34 -17 -53 0 -32 32 -66 450 -484 417 -417
452 -449 483 -449 41 0 65 21 74 64 6 31 -8 45 -448 486 -431 431 -456 454
-490 454 -22 0 -42 -7 -52 -18z"/>
<path d="M3431 1574 c-45 -57 -54 -45 432 -531 408 -409 455 -453 484 -453 41
0 73 33 73 74 0 28 -53 84 -453 484 -406 406 -455 452 -484 452 -22 0 -38 -8
-52 -26z"/>
</g>
</svg>
